<svg width="512" height="512" viewBox="0 0 512 512" fill="none" xmlns="http://www.w3.org/2000/svg">
<g clip-path="url(#clip0_4718_2)">
<path d="M512 0H0V512H512V0Z" fill="#F5E9EB"/>
<path d="M149.849 242.767C148.15 242.767 146.824 242.98 145.873 243.405C144.133 244.214 143.263 245.276 143.263 246.591C143.263 247.3 143.465 247.856 143.87 248.261C144.922 249.394 146.318 250.345 148.059 251.114C149.09 251.579 150.588 252.166 152.55 252.874C154.533 253.602 155.869 254.118 156.557 254.422C157.245 254.746 158.014 255.181 158.863 255.727C159.713 256.253 160.421 256.809 160.988 257.396C162.303 258.792 162.961 260.391 162.961 262.192C162.961 263.487 162.617 264.65 161.929 265.682C161.221 266.714 160.29 267.543 159.136 268.171C156.749 269.466 154.017 270.113 150.942 270.113C146.834 270.113 143.476 269.395 140.865 267.958C139.975 267.473 139.257 266.855 138.711 266.107C138.164 265.338 137.891 264.518 137.891 263.648C137.891 262.799 138.154 262.121 138.68 261.615C139.206 261.109 139.955 260.856 140.926 260.856C141.897 260.856 142.656 261.2 143.202 261.888C143.749 262.556 144.022 263.436 144.022 264.529C144.022 264.974 143.981 265.439 143.901 265.925C146.005 266.997 148.251 267.533 150.638 267.533C152.763 267.533 154.574 267.22 156.071 266.592C157.771 265.864 158.621 264.589 158.621 262.768C158.621 260.887 156.719 259.217 152.915 257.76C152.287 257.518 151.306 257.174 149.971 256.729C147.259 255.778 145.226 254.948 143.87 254.24C140.511 252.459 138.832 250.234 138.832 247.563C138.832 246.308 139.166 245.185 139.834 244.194C140.521 243.223 141.432 242.454 142.565 241.887C144.851 240.754 147.532 240.188 150.608 240.188C154.21 240.188 157.123 240.784 159.349 241.978C160.138 242.403 160.775 242.96 161.261 243.647C161.747 244.335 161.989 245.114 161.989 245.984C161.989 246.854 161.686 247.563 161.079 248.109C160.492 248.676 159.754 248.959 158.863 248.959C157.973 248.959 157.326 248.918 156.921 248.837C156.739 246.409 156.172 244.791 155.221 243.981C154.25 243.172 152.459 242.767 149.849 242.767ZM167.179 267.351C165.257 265.469 164.296 262.981 164.296 259.885C164.296 256.769 165.257 254.24 167.179 252.297C169.122 250.355 171.58 249.384 174.555 249.384C176.922 249.384 178.925 250.142 180.564 251.66C182.183 253.198 182.992 255.12 182.992 257.427C182.992 258.539 182.102 259.096 180.321 259.096H168.333C168.353 261.342 169.071 263.234 170.488 264.771C171.924 266.309 173.725 267.078 175.89 267.078C177.327 267.078 178.723 266.653 180.078 265.803C180.807 265.358 181.272 265.136 181.474 265.136C181.677 265.136 181.899 265.237 182.142 265.439C182.405 265.641 182.537 265.884 182.537 266.168C182.537 266.936 182.051 267.645 181.08 268.292C180.088 268.94 179.006 269.415 177.832 269.719C176.659 270.022 175.637 270.174 174.767 270.174C171.611 270.174 169.081 269.233 167.179 267.351ZM179.168 256.911C179.148 255.332 178.733 254.048 177.923 253.056C177.114 252.044 175.941 251.539 174.403 251.539C172.865 251.539 171.519 252.095 170.366 253.208C169.213 254.321 168.596 255.585 168.515 257.002H173.371C175.536 257.002 177.468 256.971 179.168 256.911ZM189.214 256.455C188.688 256.455 188.101 256.253 187.454 255.848C186.806 255.444 186.482 254.918 186.482 254.27C186.482 253.602 186.675 252.975 187.059 252.388C187.423 251.822 187.909 251.356 188.516 250.992C189.103 250.628 189.79 250.314 190.58 250.051C192.016 249.606 193.564 249.384 195.223 249.384C198.015 249.384 200.049 250.001 201.324 251.235C202.578 252.469 203.205 254.513 203.205 257.366V263.466C203.205 264.964 203.388 265.894 203.752 266.259C203.853 266.36 204.156 266.481 204.662 266.623C206.079 267.068 206.787 267.412 206.787 267.655C206.787 269.112 205.3 269.84 202.325 269.84C201.212 269.84 200.484 269.587 200.14 269.081C199.796 268.575 199.614 267.675 199.594 266.38C198.966 267.493 198.015 268.393 196.741 269.081C195.466 269.769 194.1 270.113 192.643 270.113C191.207 270.113 189.983 269.931 188.971 269.567C187.959 269.182 187.14 268.575 186.513 267.746C185.885 266.916 185.572 266.016 185.572 265.045C185.572 264.073 185.683 263.294 185.906 262.708C186.128 262.121 186.401 261.625 186.725 261.22C187.049 260.816 187.504 260.452 188.091 260.128C188.657 259.824 189.194 259.571 189.699 259.369C190.185 259.187 190.822 259.025 191.612 258.883C192.785 258.661 193.766 258.499 194.556 258.398C195.345 258.317 195.749 258.266 195.77 258.246C195.85 258.246 196.326 258.195 197.196 258.094C198.066 258.013 198.744 257.831 199.23 257.548C199.23 254.918 198.875 253.198 198.167 252.388C197.56 251.7 196.538 251.356 195.102 251.356C193.685 251.356 192.613 251.721 191.885 252.449C191.177 253.178 190.822 254.331 190.822 255.909L190.853 256.364C190.266 256.425 189.72 256.455 189.214 256.455ZM199.23 259.43C198.299 259.774 197.236 260.006 196.043 260.128C194.869 260.269 193.938 260.421 193.25 260.583C192.583 260.765 192.016 260.988 191.551 261.251C190.499 261.858 189.973 262.91 189.973 264.407C189.973 266.775 191.359 267.958 194.131 267.958C196.518 267.958 198.036 266.815 198.683 264.529C199.047 263.234 199.23 261.534 199.23 259.43ZM214.921 269.627L213.13 269.658C211.329 269.658 210.206 269.375 209.761 268.808C209.579 268.565 209.488 268.262 209.488 267.898C209.488 267.554 209.63 267.311 209.913 267.169C210.176 267.027 210.479 266.957 210.823 266.957C211.167 266.936 211.471 266.825 211.734 266.623C212.017 266.42 212.159 266.097 212.159 265.652V253.815C212.159 253.39 212.007 253.076 211.704 252.874C211.38 252.672 211.036 252.56 210.672 252.54C209.68 252.479 209.184 252.166 209.184 251.599C209.184 250.689 210.105 250.072 211.946 249.748C212.351 249.667 212.735 249.627 213.1 249.627C214.293 249.627 215.062 249.798 215.406 250.142C215.75 250.507 215.922 251.296 215.922 252.51C217.824 250.385 220.404 249.323 223.662 249.323C224.795 249.323 225.897 249.657 226.97 250.325C228.042 251.013 228.882 251.812 229.489 252.722C231.836 250.436 234.446 249.293 237.319 249.293C240.658 249.293 242.782 250.719 243.693 253.572C244.199 255.11 244.452 257.204 244.452 259.855V265.652C244.452 266.461 244.897 266.886 245.787 266.926C246.677 266.987 247.123 267.351 247.123 268.019C247.123 268.768 246.708 269.233 245.878 269.415C245.231 269.557 244.361 269.627 243.268 269.627L241.477 269.658C239.656 269.658 238.533 269.375 238.109 268.808C237.926 268.565 237.835 268.262 237.835 267.898C237.835 267.554 237.967 267.311 238.23 267.169C238.513 267.027 238.827 266.957 239.171 266.957C239.495 266.936 239.798 266.825 240.081 266.623C240.365 266.42 240.506 266.097 240.506 265.652V259.278C240.506 256.122 240.152 254.108 239.444 253.238C238.776 252.388 237.825 251.963 236.591 251.963C235.357 251.963 234.294 252.125 233.404 252.449C232.494 252.773 231.745 253.279 231.158 253.967C230.571 254.655 230.278 255.464 230.278 256.395V265.652C230.278 266.461 230.733 266.886 231.644 266.926C232.534 266.987 232.979 267.351 232.979 268.019C232.979 268.768 232.564 269.233 231.735 269.415C231.087 269.557 230.217 269.627 229.125 269.627L227.334 269.658C225.513 269.658 224.39 269.375 223.965 268.808C223.763 268.565 223.662 268.262 223.662 267.898C223.662 267.554 223.803 267.311 224.087 267.169C224.37 267.027 224.683 266.957 225.027 266.957C225.351 266.936 225.655 266.825 225.938 266.623C226.221 266.42 226.363 266.097 226.363 265.652V259.49C226.363 256.88 226.13 255.09 225.665 254.118C224.997 252.682 223.864 251.963 222.266 251.963C220.283 251.963 218.755 252.469 217.683 253.481C216.63 254.493 216.104 255.929 216.104 257.791V265.652C216.104 266.461 216.55 266.886 217.44 266.926C218.33 266.987 218.775 267.351 218.775 268.019C218.775 268.768 218.36 269.233 217.531 269.415C216.904 269.557 216.034 269.627 214.921 269.627ZM258.838 267.746C261.954 267.746 263.512 266.785 263.512 264.862C263.512 263.426 262.106 262.303 259.293 261.494C258.767 261.332 258.13 261.15 257.381 260.947C255.985 260.583 255.044 260.3 254.558 260.097C253.344 259.632 252.313 258.944 251.463 258.034C250.633 257.143 250.218 256.081 250.218 254.847C250.218 253.269 250.977 251.953 252.495 250.901C253.992 249.849 255.813 249.323 257.958 249.323C260.062 249.323 262.025 249.697 263.846 250.446C264.736 250.83 265.464 251.346 266.031 251.994C266.598 252.662 266.881 253.36 266.881 254.088C266.881 254.796 266.587 255.373 266.001 255.818C265.434 256.243 264.847 256.455 264.24 256.455C263.613 256.455 263.198 256.395 262.996 256.273C262.794 256.152 262.692 255.879 262.692 255.454C262.692 252.783 261.276 251.448 258.443 251.448C257.27 251.448 256.248 251.711 255.378 252.237C254.508 252.742 254.073 253.41 254.073 254.24C254.073 255.555 255.429 256.587 258.14 257.336C258.565 257.457 259.081 257.588 259.688 257.73C260.295 257.892 260.861 258.054 261.387 258.216C261.893 258.378 262.419 258.57 262.966 258.792C263.532 258.995 264.129 259.268 264.756 259.612C265.384 259.956 265.889 260.33 266.274 260.735C267.164 261.645 267.609 262.748 267.609 264.043C267.609 265.338 267.174 266.461 266.304 267.412C264.584 269.253 262.096 270.174 258.838 270.174C256.734 270.174 254.781 269.82 252.98 269.112C252.07 268.768 251.341 268.272 250.795 267.624C250.249 266.997 249.976 266.319 249.976 265.591C249.976 264.883 250.198 264.326 250.643 263.922C251.109 263.537 251.625 263.345 252.191 263.345C252.778 263.345 253.274 263.517 253.678 263.861C254.083 264.225 254.285 264.68 254.285 265.227C254.285 265.753 254.245 266.319 254.164 266.926C255.621 267.473 257.179 267.746 258.838 267.746ZM301.389 253.147C299.852 253.289 298.718 253.542 297.99 253.906C297.241 254.25 296.624 254.877 296.139 255.788L294.105 254.331C294.773 251.66 296.493 249.991 299.265 249.323C299.568 249.262 300.631 249.09 302.452 248.807C304.273 248.544 305.426 248.321 305.912 248.139C307.227 247.654 307.985 246.804 308.188 245.59L310.707 246.925C310.161 248.645 309.604 249.839 309.038 250.507C307.925 251.761 306.104 252.53 303.575 252.813C304.971 255.282 305.669 257.74 305.669 260.188C305.669 263.547 304.394 266.329 301.845 268.535C299.295 270.72 295.835 271.813 291.465 271.813C287.823 271.813 284.818 271.044 282.451 269.506C281.297 268.757 280.387 267.766 279.719 266.532C279.051 265.277 278.717 263.851 278.717 262.252C278.717 259.581 280.002 257.386 282.572 255.666C283.462 255.079 284.525 254.584 285.759 254.179V254.149C284.322 253.764 283.068 253.076 281.995 252.085C280.923 251.073 280.387 249.869 280.387 248.473C280.387 246.207 281.429 244.406 283.513 243.071C285.577 241.735 287.711 241.068 289.917 241.068C292.143 241.068 293.933 241.482 295.289 242.312C296.624 243.162 297.292 244.386 297.292 245.984C297.292 246.794 296.988 247.411 296.381 247.836C295.754 248.281 295.066 248.504 294.318 248.504C293.589 248.504 292.942 248.473 292.375 248.412C292.456 247.886 292.497 247.35 292.497 246.804C292.497 245.529 292.153 244.518 291.465 243.769C290.797 243 289.836 242.616 288.581 242.616C287.327 242.616 286.275 243.152 285.425 244.224C284.555 245.297 284.12 246.571 284.12 248.048C284.12 250.153 284.929 251.62 286.548 252.449C287.074 252.712 287.59 252.844 288.096 252.844C288.622 252.844 289.027 252.965 289.31 253.208C289.613 253.471 289.765 253.815 289.765 254.24C289.765 255.049 289.148 255.454 287.914 255.454C286.679 255.454 285.567 256.071 284.575 257.305C283.584 258.539 283.088 259.925 283.088 261.463C283.088 264.134 284.747 265.904 288.065 266.775C289.219 267.058 290.757 267.199 292.679 267.199C294.581 267.199 296.301 266.936 297.838 266.41C299.356 265.864 300.59 264.984 301.541 263.77C302.472 262.556 302.937 261.038 302.937 259.217C302.937 257.376 302.421 255.353 301.389 253.147ZM330.344 242.767C328.664 242.767 327.349 242.98 326.398 243.405C324.658 244.214 323.788 245.276 323.788 246.591C323.788 247.3 323.99 247.856 324.395 248.261C325.447 249.394 326.843 250.345 328.583 251.114C329.615 251.579 331.113 252.166 333.075 252.874C335.058 253.602 336.394 254.118 337.082 254.422C337.769 254.746 338.538 255.181 339.388 255.727C340.238 256.253 340.946 256.809 341.513 257.396C342.828 258.792 343.486 260.391 343.486 262.192C343.486 263.487 343.142 264.65 342.454 265.682C341.745 266.714 340.815 267.543 339.661 268.171C337.254 269.466 334.522 270.113 331.467 270.113C327.359 270.113 323.99 269.395 321.36 267.958C320.49 267.473 319.782 266.855 319.235 266.107C318.689 265.338 318.416 264.518 318.416 263.648C318.416 262.799 318.679 262.121 319.205 261.615C319.731 261.109 320.48 260.856 321.451 260.856C322.422 260.856 323.181 261.2 323.727 261.888C324.274 262.556 324.547 263.436 324.547 264.529C324.547 264.974 324.506 265.439 324.425 265.925C326.53 266.997 328.776 267.533 331.163 267.533C333.288 267.533 335.099 267.22 336.596 266.592C338.296 265.864 339.145 264.589 339.145 262.768C339.145 260.887 337.243 259.217 333.439 257.76C332.812 257.518 331.831 257.174 330.495 256.729C327.784 255.778 325.751 254.948 324.395 254.24C321.016 252.459 319.326 250.234 319.326 247.563C319.326 246.308 319.67 245.185 320.358 244.194C321.026 243.223 321.937 242.454 323.09 241.887C325.376 240.754 328.057 240.188 331.133 240.188C334.734 240.188 337.648 240.784 339.874 241.978C340.663 242.403 341.3 242.96 341.786 243.647C342.271 244.335 342.514 245.114 342.514 245.984C342.514 246.854 342.211 247.563 341.604 248.109C341.017 248.676 340.278 248.959 339.388 248.959C338.498 248.959 337.85 248.918 337.446 248.837C337.264 246.409 336.697 244.791 335.746 243.981C334.775 243.172 332.974 242.767 330.344 242.767ZM347.006 264.043V252.449L345.762 252.479C345.236 252.479 344.861 252.429 344.639 252.328C344.396 252.227 344.275 252.024 344.275 251.721C344.275 251.397 344.406 251.114 344.669 250.871C344.952 250.608 345.266 250.406 345.61 250.264C346.561 249.879 347.128 249.556 347.31 249.293C347.512 249.009 347.795 248.412 348.159 247.502C349.09 245.216 349.869 244.072 350.496 244.072C350.8 244.072 350.982 244.416 351.043 245.104C351.083 245.792 351.103 246.318 351.103 246.683C351.124 247.047 351.124 247.583 351.103 248.291C351.083 248.999 351.073 249.495 351.073 249.778H356.02C356.506 249.778 356.911 249.9 357.234 250.142C357.578 250.385 357.75 250.709 357.75 251.114C357.75 251.518 357.588 251.832 357.265 252.055C356.941 252.277 356.536 252.388 356.051 252.388H351.073V262.981C351.073 265.975 351.822 267.473 353.319 267.473C353.744 267.473 354.361 267.351 355.17 267.108C355.98 266.845 356.516 266.714 356.779 266.714C357.346 266.714 357.629 267.038 357.629 267.685C357.629 268.211 356.961 268.727 355.626 269.233C354.29 269.739 352.914 269.992 351.498 269.992C350.102 269.992 349.009 269.445 348.22 268.353C347.411 267.26 347.006 265.824 347.006 264.043ZM364.427 256.455C363.901 256.455 363.315 256.253 362.667 255.848C362.02 255.444 361.696 254.918 361.696 254.27C361.696 253.602 361.888 252.975 362.272 252.388C362.637 251.822 363.122 251.356 363.729 250.992C364.316 250.628 365.004 250.314 365.793 250.051C367.23 249.606 368.778 249.384 370.437 249.384C373.229 249.384 375.262 250.001 376.537 251.235C377.792 252.469 378.419 254.513 378.419 257.366V263.466C378.419 264.964 378.601 265.894 378.965 266.259C379.066 266.36 379.37 266.481 379.876 266.623C381.292 267.068 382 267.412 382 267.655C382 269.112 380.513 269.84 377.539 269.84C376.426 269.84 375.698 269.587 375.354 269.081C375.01 268.575 374.827 267.675 374.807 266.38C374.18 267.493 373.229 268.393 371.954 269.081C370.68 269.769 369.314 270.113 367.857 270.113C366.42 270.113 365.196 269.931 364.185 269.567C363.173 269.182 362.353 268.575 361.726 267.746C361.099 266.916 360.785 266.016 360.785 265.045C360.785 264.073 360.897 263.294 361.119 262.708C361.321 262.121 361.595 261.625 361.939 261.22C362.262 260.816 362.718 260.452 363.304 260.128C363.871 259.824 364.407 259.571 364.913 259.369C365.399 259.187 366.036 259.025 366.825 258.883C367.999 258.661 368.98 258.499 369.769 258.398C370.558 258.317 370.963 258.266 370.983 258.246C371.064 258.246 371.539 258.195 372.41 258.094C373.259 258.013 373.937 257.831 374.443 257.548C374.443 254.918 374.089 253.198 373.381 252.388C372.754 251.7 371.732 251.356 370.315 251.356C368.899 251.356 367.827 251.721 367.098 252.449C366.39 253.178 366.036 254.331 366.036 255.909L366.066 256.364C365.479 256.425 364.933 256.455 364.427 256.455ZM374.443 259.43C373.512 259.774 372.45 260.006 371.256 260.128C370.083 260.269 369.152 260.421 368.464 260.583C367.796 260.765 367.23 260.988 366.764 261.251C365.712 261.858 365.186 262.91 365.186 264.407C365.186 266.775 366.572 267.958 369.344 267.958C371.732 267.958 373.249 266.815 373.897 264.529C374.261 263.234 374.443 261.534 374.443 259.43ZM385.824 264.043V252.449L384.55 252.479C384.044 252.479 383.67 252.429 383.427 252.328C383.184 252.227 383.063 252.024 383.063 251.721C383.063 251.397 383.204 251.114 383.487 250.871C383.751 250.608 384.054 250.406 384.398 250.264C385.349 249.879 385.926 249.556 386.128 249.293C386.31 249.009 386.583 248.412 386.947 247.502C387.878 245.216 388.657 244.072 389.284 244.072C389.608 244.072 389.79 244.416 389.831 245.104C389.871 245.792 389.902 246.318 389.922 246.683C389.922 247.047 389.912 247.583 389.891 248.291C389.891 248.999 389.891 249.495 389.891 249.778H394.808C395.294 249.778 395.709 249.9 396.053 250.142C396.376 250.385 396.538 250.709 396.538 251.114C396.538 251.518 396.376 251.832 396.053 252.055C395.729 252.277 395.324 252.388 394.839 252.388H389.891L389.861 262.981C389.861 265.975 390.62 267.473 392.137 267.473C392.542 267.473 393.149 267.351 393.958 267.108C394.788 266.845 395.324 266.714 395.567 266.714C396.134 266.714 396.417 267.038 396.417 267.685C396.417 268.211 395.749 268.727 394.414 269.233C393.078 269.739 391.712 269.992 390.316 269.992C388.9 269.992 387.797 269.445 387.008 268.353C386.219 267.26 385.824 265.824 385.824 264.043ZM405.249 252.237V260.644C405.249 262.525 405.401 263.861 405.704 264.65C406.008 265.439 406.352 265.996 406.736 266.319C407.545 267.007 408.891 267.351 410.773 267.351C412.634 267.351 414 266.876 414.87 265.925C415.74 264.954 416.175 263.345 416.175 261.099V254.088C416.175 253.056 415.679 252.51 414.688 252.449C413.878 252.409 413.433 252.318 413.352 252.176C413.271 252.055 413.231 251.913 413.231 251.751C413.231 251.043 413.636 250.517 414.445 250.173C415.254 249.809 416.215 249.627 417.328 249.627C418.441 249.627 419.19 249.778 419.574 250.082C419.979 250.385 420.181 251.104 420.181 252.237V265.5C420.181 266.451 420.687 266.957 421.699 267.017C422.407 267.058 422.832 267.139 422.973 267.26C423.135 267.361 423.216 267.594 423.216 267.958C423.216 268.343 422.984 268.697 422.518 269.02C421.709 269.567 420.647 269.84 419.331 269.84C418.016 269.84 417.207 269.648 416.903 269.263C416.6 268.859 416.448 267.948 416.448 266.532C414.769 268.96 412.209 270.174 408.769 270.174C406.038 270.174 404.106 269.445 402.973 267.989C401.819 266.512 401.243 264.245 401.243 261.19V254.088C401.243 253.056 400.757 252.51 399.786 252.449C398.956 252.409 398.501 252.318 398.42 252.176C398.339 252.055 398.299 251.913 398.299 251.751C398.299 251.043 398.703 250.517 399.513 250.173C400.322 249.809 401.283 249.627 402.396 249.627C403.509 249.627 404.257 249.778 404.642 250.082C405.046 250.385 405.249 251.104 405.249 252.237ZM434.932 267.746C438.048 267.746 439.606 266.785 439.606 264.862C439.606 263.426 438.199 262.303 435.387 261.494C434.881 261.332 434.254 261.15 433.505 260.947C432.109 260.583 431.168 260.3 430.683 260.097C429.448 259.632 428.416 258.944 427.587 258.034C426.737 257.143 426.312 256.081 426.312 254.847C426.312 253.269 427.071 251.953 428.588 250.901C430.106 249.849 431.937 249.323 434.082 249.323C436.166 249.323 438.118 249.697 439.939 250.446C440.85 250.83 441.578 251.346 442.125 251.994C442.691 252.662 442.974 253.36 442.974 254.088C442.974 254.796 442.691 255.373 442.125 255.818C441.538 256.243 440.941 256.455 440.334 256.455C439.707 256.455 439.302 256.395 439.12 256.273C438.918 256.152 438.816 255.879 438.816 255.454C438.816 252.783 437.39 251.448 434.537 251.448C433.363 251.448 432.342 251.711 431.472 252.237C430.602 252.742 430.167 253.41 430.167 254.24C430.167 255.555 431.522 256.587 434.234 257.336C434.658 257.457 435.174 257.588 435.781 257.73C436.409 257.892 436.975 258.054 437.481 258.216C437.987 258.378 438.523 258.57 439.09 258.792C439.656 258.995 440.243 259.268 440.85 259.612C441.477 259.956 441.983 260.33 442.367 260.735C443.278 261.645 443.733 262.748 443.733 264.043C443.733 265.338 443.298 266.461 442.428 267.412C440.688 269.253 438.189 270.174 434.932 270.174C432.827 270.174 430.885 269.82 429.104 269.112C428.194 268.768 427.455 268.272 426.889 267.624C426.342 266.997 426.069 266.319 426.069 265.591C426.069 264.883 426.292 264.326 426.737 263.922C427.202 263.537 427.728 263.345 428.315 263.345C428.882 263.345 429.377 263.517 429.802 263.861C430.207 264.225 430.409 264.68 430.409 265.227C430.409 265.753 430.359 266.319 430.258 266.926C431.714 267.473 433.272 267.746 434.932 267.746Z" fill="#36131B"/>
<path d="M91.9855 233.764C104.247 233.764 114.222 243.739 114.222 256C114.222 268.261 104.247 278.237 91.9855 278.237C79.7243 278.237 69.749 268.261 69.749 256C69.749 243.739 79.7243 233.764 91.9855 233.764ZM91.9855 232.281C78.8853 232.281 68.2666 242.9 68.2666 256C68.2666 269.1 78.8853 279.719 91.9855 279.719C105.086 279.719 115.704 269.1 115.704 256C115.704 242.9 105.086 232.281 91.9855 232.281Z" fill="url(#paint0_linear_4718_2)"/>
<path d="M91.9856 242.725L105.261 256L91.9856 269.275L78.7104 256L91.9856 242.725ZM91.9856 240.629L76.6143 256L91.9856 271.372L107.357 256L91.9856 240.629Z" fill="url(#paint1_linear_4718_2)"/>
</g>
<defs>
<linearGradient id="paint0_linear_4718_2" x1="68.2666" y1="232.281" x2="4367.6" y2="2237.09" gradientUnits="userSpaceOnUse">
<stop stop-color="#70243D"/>
<stop offset="1" stop-color="#C15767"/>
</linearGradient>
<linearGradient id="paint1_linear_4718_2" x1="72.3043" y1="243.375" x2="2858.54" y2="1542.62" gradientUnits="userSpaceOnUse">
<stop stop-color="#70243D"/>
<stop offset="1" stop-color="#C15767"/>
</linearGradient>
<clipPath id="clip0_4718_2">
<rect width="512" height="512" fill="white"/>
</clipPath>
</defs>
</svg>
